<!-- <svg width="18" height="22" viewBox="0 0 18 22" fill="none" xmlns="http://www.w3.org/2000/svg">
<path d="M14.4 6.91999H3.6V4.87999H14.4V6.91999ZM14.4 9.97999H3.6V7.93999H14.4V9.97999ZM14.4 13.04H3.6V11H14.4V13.04ZM18 2.83999C18 2.29895 17.8104 1.78006 17.4728 1.39749C17.1352 1.01492 16.6774 0.799988 16.2 0.799988H1.8C1.32261 0.799988 0.864773 1.01492 0.527208 1.39749C0.189642 1.78006 0 2.29895 0 2.83999V15.08C0 15.621 0.189642 16.1399 0.527208 16.5225C0.864773 16.9051 1.32261 17.12 1.8 17.12H14.4L18 21.2V2.83999Z" fill="black"/>
</svg> -->
<svg xmlns="http://www.w3.org/2000/svg" height="16" width="16" viewBox="0 0 512 512"><!--!Font Awesome Free 6.5.1 by @fontawesome - https://fontawesome.com License - https://fontawesome.com/license/free Copyright 2024 Fonticons, Inc.--><path d="M256 448c141.4 0 256-93.1 256-208S397.4 32 256 32S0 125.1 0 240c0 45.1 17.7 86.8 47.7 120.9c-1.9 24.5-11.4 46.3-21.4 62.9c-5.5 9.2-11.1 16.6-15.2 21.6c-2.1 2.5-3.7 4.4-4.9 5.7c-.6 .6-1 1.1-1.3 1.4l-.3 .3 0 0 0 0 0 0 0 0c-4.6 4.6-5.9 11.4-3.4 17.4c2.5 6 8.3 9.9 14.8 9.9c28.7 0 57.6-8.9 81.6-19.3c22.9-10 42.4-21.9 54.3-30.6c31.8 11.5 67 17.9 104.1 17.9zM128 208a32 32 0 1 1 0 64 32 32 0 1 1 0-64zm128 0a32 32 0 1 1 0 64 32 32 0 1 1 0-64zm96 32a32 32 0 1 1 64 0 32 32 0 1 1 -64 0z"/></svg>