<svg width="19" height="16" viewBox="0 0 19 16" fill="none" xmlns="http://www.w3.org/2000/svg">
<path d="M10.8333 0.5C8.84413 0.5 6.93647 1.29018 5.52995 2.6967C4.12343 4.10322 3.33325 6.01088 3.33325 8H0.833252L4.07492 11.2417L4.13325 11.3583L7.49992 8H4.99992C4.99992 6.4529 5.6145 4.96917 6.70846 3.87521C7.80242 2.78125 9.28616 2.16667 10.8333 2.16667C12.3803 2.16667 13.8641 2.78125 14.958 3.87521C16.052 4.96917 16.6666 6.4529 16.6666 8C16.6666 9.5471 16.052 11.0308 14.958 12.1248C13.8641 13.2188 12.3803 13.8333 10.8333 13.8333C9.22492 13.8333 7.76659 13.175 6.71659 12.1167L5.53325 13.3C6.89158 14.6667 8.74992 15.5 10.8333 15.5C12.8224 15.5 14.73 14.7098 16.1366 13.3033C17.5431 11.8968 18.3333 9.98912 18.3333 8C18.3333 6.01088 17.5431 4.10322 16.1366 2.6967C14.73 1.29018 12.8224 0.5 10.8333 0.5Z" fill="black"/>
</svg>
