<svg width="88" height="18" viewBox="0 0 88 18" fill="none" xmlns="http://www.w3.org/2000/svg">
<path d="M10.198 6.936C10.198 7.56667 10.2273 8.18267 10.286 8.784C10.3593 9.37067 10.4693 10.1993 10.616 11.27C10.8947 13.074 11.034 14.5113 11.034 15.582C11.034 15.802 10.99 15.934 10.902 15.978C10.814 16.022 10.7113 16.044 10.594 16.044C10.4767 16.044 10.396 16.044 10.352 16.044C10.1467 16.044 9.98533 16.022 9.868 15.978C9.75067 15.9193 9.65533 15.7873 9.582 15.582L9.12 9.598C9.076 8.99667 9.01733 7.78667 8.944 5.968C8.31333 6.70133 7.69 7.25867 7.074 7.64C6.458 8.00667 5.82733 8.19 5.182 8.19C4.258 8.19 3.334 7.53733 2.41 6.232C2.454 6.452 2.476 6.74533 2.476 7.112C2.476 7.47867 2.476 7.69133 2.476 7.75L2.454 14.944C2.454 15.0907 2.37333 15.208 2.212 15.296C2.06533 15.3693 1.91133 15.406 1.75 15.406C1.54467 15.406 1.398 15.3327 1.31 15.186C1.23667 15.0247 1.178 14.812 1.134 14.548V11.468C1.134 10.9987 1.14867 10.4707 1.178 9.884C1.20733 9.29733 1.22933 8.88667 1.244 8.652C1.31733 7.62533 1.354 6.694 1.354 5.858C1.354 5.60867 1.31 5.374 1.222 5.154C1.134 4.91933 1.002 4.66267 0.826 4.384C0.65 4.10533 0.518 3.86333 0.43 3.658C0.356667 3.45267 0.32 3.23267 0.32 2.998C0.32 2.71933 0.459333 2.58 0.738 2.58C1.178 2.58 1.53733 2.74133 1.816 3.064C2.09467 3.372 2.39533 3.84133 2.718 4.472C2.99667 4.98533 3.23867 5.38867 3.444 5.682C3.64933 5.97533 3.91333 6.232 4.236 6.452C4.55867 6.65733 4.94733 6.76 5.402 6.76C6.062 6.78933 6.60467 6.66467 7.03 6.386C7.45533 6.09267 7.778 5.74067 7.998 5.33C8.218 4.91933 8.43067 4.42067 8.636 3.834C8.812 3.35 8.966 3.01267 9.098 2.822C9.23 2.61667 9.39133 2.536 9.582 2.58C10.022 2.55067 10.242 2.954 10.242 3.79C10.242 4.494 10.2347 5.01467 10.22 5.352L10.198 6.936ZM19.7993 16.022C18.5819 16.022 17.4893 15.7727 16.5213 15.274C15.5679 14.7753 14.8199 14.0713 14.2773 13.162C13.7346 12.2527 13.4633 11.204 13.4633 10.016C13.4633 9.20933 13.6246 8.46867 13.9473 7.794C14.2699 7.11933 14.7393 6.584 15.3553 6.188C15.9713 5.77733 16.6973 5.572 17.5333 5.572C19.1173 5.572 20.5253 5.84333 21.7573 6.386C23.0039 6.914 23.9719 7.67667 24.6613 8.674C25.3653 9.67133 25.7173 10.8227 25.7173 12.128C25.7173 12.9933 25.3946 13.7193 24.7493 14.306C24.1186 14.8927 23.3413 15.3253 22.4173 15.604C21.5079 15.8827 20.6353 16.022 19.7993 16.022ZM19.3813 14.878C20.8479 14.878 22.0799 14.658 23.0773 14.218C24.0893 13.778 24.5953 13.0447 24.5953 12.018C24.5953 10.2287 23.9059 8.88667 22.5273 7.992C21.1486 7.08267 19.3886 6.628 17.2473 6.628C16.2206 6.628 15.4946 6.936 15.0693 7.552C14.6586 8.15333 14.4533 8.97467 14.4533 10.016C14.4533 10.8813 14.6586 11.688 15.0693 12.436C15.4946 13.1693 16.0813 13.7633 16.8293 14.218C17.5773 14.658 18.4279 14.878 19.3813 14.878ZM37.4263 5.044C37.8516 5.044 38.2916 5.462 38.7463 6.298C39.2009 7.134 39.5823 8.09467 39.8903 9.18C40.1983 10.2507 40.3523 11.05 40.3523 11.578C40.3523 12.3847 40.1763 13.1107 39.8243 13.756C39.4869 14.3867 39.0029 14.8853 38.3723 15.252C37.7416 15.604 37.0229 15.78 36.2163 15.78C35.1016 15.78 34.1336 15.4793 33.3123 14.878C32.5056 14.2767 31.8603 13.5873 31.3763 12.81C30.8923 12.018 30.3936 11.072 29.8803 9.972L29.5723 9.312L29.6163 14.636C29.6163 14.9587 29.5576 15.274 29.4403 15.582C29.3376 15.8753 29.1543 16.022 28.8903 16.022C28.6263 16.022 28.4356 15.8753 28.3183 15.582C28.2009 15.274 28.1423 14.9733 28.1423 14.68C28.1423 13.7413 28.2156 12.392 28.3623 10.632C28.5089 8.872 28.5823 7.55933 28.5823 6.694C28.5823 6.48867 28.5676 6.276 28.5383 6.056C28.5089 5.836 28.4869 5.682 28.4723 5.594C28.3989 5.198 28.3623 4.846 28.3623 4.538V4.45C28.4063 4.45 28.5383 4.42067 28.7583 4.362C28.9929 4.28867 29.1323 4.252 29.1763 4.252H29.3963C29.9536 6.76 30.7749 9.07733 31.8603 11.204C32.9603 13.316 34.4636 14.372 36.3703 14.372C37.2649 14.372 37.9396 14.108 38.3943 13.58C38.8636 13.0373 39.0983 12.3113 39.0983 11.402C39.0983 10.6247 38.9736 9.91333 38.7243 9.268C38.4749 8.608 38.1009 7.80133 37.6023 6.848L37.0083 5.682C36.9643 5.60867 36.9423 5.53533 36.9423 5.462C36.9423 5.34467 36.9863 5.24933 37.0743 5.176C37.1623 5.088 37.2796 5.044 37.4263 5.044ZM29.6163 14.636V14.592V14.636ZM53.526 17.518C53.0273 17.518 52.69 17.254 52.514 16.726C52.3526 16.2127 52.272 15.648 52.272 15.032L52.338 14.394C51.6193 14.8487 50.7686 15.208 49.786 15.472C48.818 15.736 47.7986 15.868 46.728 15.868C45.9506 15.868 45.2613 15.692 44.66 15.34C44.0586 14.9733 43.5893 14.482 43.252 13.866C42.9293 13.2353 42.768 12.524 42.768 11.732C42.768 10.5293 43.2373 9.39267 44.176 8.322C45.1146 7.23667 46.266 6.35667 47.63 5.682C49.0086 4.99267 50.2846 4.604 51.458 4.516C52.0446 4.45733 52.5433 4.58933 52.954 4.912C53.3646 5.22 53.57 5.65267 53.57 6.21C53.262 6.21 52.8953 6.12933 52.47 5.968C52.4113 5.95333 52.2573 5.90933 52.008 5.836C51.7586 5.76267 51.502 5.726 51.238 5.726C50.1966 5.726 49.0893 6.02667 47.916 6.628C46.7573 7.22933 45.782 8.02867 44.99 9.026C44.2126 10.0087 43.824 11.0427 43.824 12.128C43.824 12.6413 43.978 13.0887 44.286 13.47C44.6086 13.8367 45.0046 14.1227 45.474 14.328C45.958 14.5187 46.442 14.614 46.926 14.614C48.0846 14.614 49.038 14.57 49.786 14.482C50.534 14.3793 51.1793 14.1227 51.722 13.712C52.2646 13.2867 52.536 12.6413 52.536 11.776C52.536 11.3653 52.448 11.0793 52.272 10.918H48.356C48.1506 10.918 47.9526 10.8153 47.762 10.61C47.586 10.4047 47.498 10.1993 47.498 9.994C47.498 9.62733 47.608 9.444 47.828 9.444C48.004 9.444 48.2826 9.51733 48.664 9.664C49.016 9.82533 49.3166 9.906 49.566 9.906C49.8886 9.906 50.3873 9.862 51.062 9.774C51.1793 9.75933 51.392 9.73733 51.7 9.708C52.008 9.67867 52.2866 9.664 52.536 9.664C52.7853 9.664 53.0273 9.774 53.262 9.994C53.5113 10.1993 53.6286 10.434 53.614 10.698L53.482 15.78C53.5846 15.9853 53.7606 16.1613 54.01 16.308C54.098 16.352 54.1713 16.4033 54.23 16.462C54.2886 16.5353 54.3253 16.6087 54.34 16.682C54.4133 16.8433 54.34 17.0193 54.12 17.21C53.9 17.4153 53.702 17.518 53.526 17.518ZM65.3389 16.022C62.5376 16.022 60.3669 15.868 58.8269 15.56C58.4309 8.212 58.0716 3.768 57.7489 2.228L57.0889 2.382C56.7369 2.45533 56.3996 2.536 56.0769 2.624C55.7543 2.69733 55.4096 2.80733 55.0429 2.954L55.0209 2.206C55.0209 1.95667 55.2923 1.72933 55.8349 1.524C56.3776 1.304 57.0303 1.13533 57.7929 1.018C58.5703 0.885999 59.2596 0.819999 59.8609 0.819999C60.5209 0.819999 61.2763 0.937332 62.1269 1.172C62.9923 1.40667 63.7329 1.75867 64.3489 2.228C64.9649 2.68267 65.2729 3.22533 65.2729 3.856C65.2729 4.57467 64.9943 5.21267 64.4369 5.77C63.8943 6.31267 63.1829 6.70133 62.3029 6.936C63.5936 7.156 64.7963 7.552 65.9109 8.124C67.0256 8.68133 67.9203 9.378 68.5949 10.214C69.2696 11.0353 69.6069 11.9227 69.6069 12.876C69.6069 13.976 69.1816 14.7753 68.3309 15.274C67.4803 15.7727 66.4829 16.022 65.3389 16.022ZM64.7669 14.768C65.8523 14.768 66.6883 14.6507 67.2749 14.416C67.8616 14.1667 68.1549 13.6387 68.1549 12.832C68.1549 11.9813 67.8983 11.27 67.3849 10.698C66.8863 10.1113 66.2923 9.65667 65.6029 9.334C64.9283 8.99667 64.0849 8.64467 63.0729 8.278C62.2663 7.99933 61.6649 7.75733 61.2689 7.552C60.8876 7.332 60.6969 7.09 60.6969 6.826C60.6969 6.63533 60.7923 6.48867 60.9829 6.386C61.1736 6.28333 61.5109 6.13667 61.9949 5.946C62.6549 5.726 63.1683 5.49133 63.5349 5.242C63.9163 4.978 64.1069 4.61133 64.1069 4.142C64.1069 3.45267 63.6889 2.92467 62.8529 2.558C62.0169 2.17667 61.0783 1.986 60.0369 1.986C59.7436 1.986 59.3916 2.01533 58.9809 2.074C59.3623 4.538 59.6263 6.61333 59.7729 8.3C59.9196 9.972 60.0223 11.9153 60.0809 14.13C60.2863 14.3353 60.8069 14.4893 61.6429 14.592C62.4789 14.6947 63.5203 14.7533 64.7669 14.768ZM73.9157 16C73.725 16.0733 73.5417 16.0293 73.3657 15.868C73.2043 15.7067 73.1163 15.4793 73.1017 15.186C73.043 14.7607 72.977 14.24 72.9037 13.624C72.845 13.008 72.801 12.5533 72.7717 12.26C72.7423 11.9667 72.6763 11.402 72.5737 10.566C72.4857 9.71533 72.3903 8.982 72.2877 8.366C72.2583 8.16067 72.163 7.794 72.0017 7.266C71.5763 5.75533 71.3637 4.66267 71.3637 3.988C71.4663 3.84133 71.569 3.768 71.6717 3.768C72.053 3.768 72.449 4.53067 72.8597 6.056C73.2703 7.58133 73.615 9.30467 73.8937 11.226C74.187 13.1327 74.3337 14.438 74.3337 15.142C74.3337 15.1713 74.3337 15.2667 74.3337 15.428C74.3337 15.5747 74.297 15.6993 74.2237 15.802C74.165 15.9047 74.0623 15.9707 73.9157 16ZM83.1194 16.022C82.7087 16.022 82.4227 15.8093 82.2614 15.384C82.1001 14.9587 81.9681 14.3867 81.8654 13.668L81.7994 13.118C81.5794 11.9447 81.4034 10.7787 81.2714 9.62C81.1394 8.44667 81.0074 7.03133 80.8754 5.374L80.7434 3.746C79.8634 3.76067 78.6094 3.724 76.9814 3.636L76.5414 3.614C76.3361 3.59933 76.1894 3.504 76.1014 3.328C76.0281 3.13733 75.9914 2.88067 75.9914 2.558H77.5094C80.0614 2.558 82.3641 2.65333 84.4174 2.844C86.4707 3.03467 87.4974 3.42333 87.4974 4.01C87.4974 4.17133 87.4681 4.28133 87.4094 4.34C87.3654 4.39867 87.2627 4.428 87.1014 4.428C86.5147 4.384 85.6054 4.25933 84.3734 4.054C84.0947 4.01 83.7574 3.95867 83.3614 3.9C82.9654 3.84133 82.5181 3.78267 82.0194 3.724C82.0194 5.85067 82.3347 9.12133 82.9654 13.536C82.9947 13.756 83.0974 14.0713 83.2734 14.482C83.3467 14.658 83.4127 14.8487 83.4714 15.054C83.5447 15.2447 83.5814 15.4207 83.5814 15.582C83.5814 15.7873 83.5521 15.912 83.4934 15.956C83.4347 16 83.3614 16.022 83.2734 16.022C83.2001 16.022 83.1487 16.022 83.1194 16.022Z" fill="black"/>
</svg>
